<svg width="26" height="26" viewBox="0 0 26 26" fill="none" xmlns="http://www.w3.org/2000/svg">
<path d="M13.0002 21.6673C12.4043 21.6673 11.8943 21.4552 11.47 21.0309C11.0456 20.6066 10.8335 20.0965 10.8335 19.5007C10.8335 18.9048 11.0456 18.3947 11.47 17.9704C11.8943 17.5461 12.4043 17.334 13.0002 17.334C13.596 17.334 14.1061 17.5461 14.5304 17.9704C14.9547 18.3947 15.1668 18.9048 15.1668 19.5007C15.1668 20.0965 14.9547 20.6066 14.5304 21.0309C14.1061 21.4552 13.596 21.6673 13.0002 21.6673ZM13.0002 15.1673C12.4043 15.1673 11.8943 14.9552 11.47 14.5309C11.0456 14.1066 10.8335 13.5965 10.8335 13.0007C10.8335 12.4048 11.0456 11.8947 11.47 11.4704C11.8943 11.0461 12.4043 10.834 13.0002 10.834C13.596 10.834 14.1061 11.0461 14.5304 11.4704C14.9547 11.8947 15.1668 12.4048 15.1668 13.0007C15.1668 13.5965 14.9547 14.1066 14.5304 14.5309C14.1061 14.9552 13.596 15.1673 13.0002 15.1673ZM13.0002 8.66732C12.4043 8.66732 11.8943 8.45516 11.47 8.03086C11.0456 7.60655 10.8335 7.09648 10.8335 6.50065C10.8335 5.90482 11.0456 5.39475 11.47 4.97044C11.8943 4.54614 12.4043 4.33398 13.0002 4.33398C13.596 4.33398 14.1061 4.54614 14.5304 4.97044C14.9547 5.39475 15.1668 5.90482 15.1668 6.50065C15.1668 7.09648 14.9547 7.60655 14.5304 8.03086C14.1061 8.45516 13.596 8.66732 13.0002 8.66732Z" fill="#9FACBD"/>
</svg>
