<svg width="40" height="40" viewBox="0 0 40 40" fill="none" xmlns="http://www.w3.org/2000/svg">
<g clip-path="url(#clip0_16_7045)">
<path d="M8.99414 0C8.99414 0 10.3336 4.32445 12.699 6.91414C14.7188 9.12555 18.4045 7.78914 18.4045 7.78914C18.4045 7.78914 18.0641 4.59539 15.6511 2.62602C13.9852 1.26641 8.99414 0 8.99414 0Z" fill="#CFDBEA"/>
<path d="M17.5596 6.16959C17.7473 6.27826 18.3453 6.80881 18.5345 6.90756L19.137 7.22319L19.6234 7.47779C20.0206 7.68569 20.1702 8.17881 19.9555 8.57233C19.7408 8.96584 19.2452 9.10694 18.8554 8.88545L18.3781 8.6142L17.7831 8.27537C17.5741 8.15397 17.3698 8.02858 17.1693 7.89998C16.3693 7.38412 10.1992 1.47014 10.4281 1.24654C10.6505 1.02944 16.8089 5.73279 17.5596 6.16959Z" fill="#CFDBEA"/>
<path d="M18.8528 15.4187C18.805 15.1089 18.7683 14.823 18.7347 14.5262C18.7016 14.2318 18.6719 13.9374 18.6477 13.6426C18.5982 13.0529 18.565 12.4614 18.5491 11.8675C18.516 10.6798 18.5557 9.48197 18.6945 8.27439C18.7683 7.67064 18.8685 7.0647 19.0041 6.45752C19.143 5.85056 19.3248 5.24299 19.5592 4.63978C19.791 4.03642 20.0948 3.43885 20.4811 2.86885C20.8672 2.29986 21.3449 1.75869 21.9219 1.30174L21.9374 1.28947C22.5253 0.823923 23.3793 0.923142 23.8449 1.51111C24.3104 2.09908 24.2112 2.95306 23.6232 3.41861C23.5857 3.44838 23.5455 3.47658 23.506 3.50181C22.7951 3.95127 22.1741 4.69525 21.7128 5.60252C21.4814 6.05502 21.2783 6.53838 21.1071 7.04314C20.9385 7.54939 20.7953 8.07267 20.6738 8.60642C20.4386 9.67697 20.286 10.785 20.2036 11.9048C20.1617 12.4646 20.1359 13.0278 20.1257 13.5915C20.1201 13.8735 20.1199 14.1554 20.1228 14.437C20.1256 14.7161 20.1339 15.0056 20.1472 15.2697L20.1481 15.2863C20.1663 15.6458 19.8896 15.9521 19.53 15.9703C19.1941 15.9874 18.9042 15.7438 18.8528 15.4187Z" fill="#CFDBEA"/>
<path d="M33.2085 11.2088C29.6816 8.87376 26.5872 8.7172 24.2707 9.23196C21.4611 9.85634 18.5387 9.85634 15.729 9.23196C13.4126 8.7172 10.3182 8.87368 6.79124 11.2088C0.155925 15.6019 1.14632 33.2224 14.1469 39.2391C16.3391 40.2537 23.6606 40.2537 25.853 39.2391C38.8535 33.2224 39.8439 15.6019 33.2085 11.2088Z" fill="#CFDBEA"/>
<path d="M33.2082 11.2088C29.6813 8.87374 26.5869 8.71718 24.2704 9.23195C24.2389 9.23898 24.2071 9.24484 24.1756 9.25163C25.5458 9.56007 27.0325 10.1673 28.6054 11.2087C35.2407 15.6019 34.2504 33.2224 21.2499 39.239C20.5143 39.5794 19.2011 39.8054 17.6982 39.9174C20.6747 40.1392 24.3959 39.9132 25.8527 39.239C38.8532 33.2224 39.8436 15.6019 33.2082 11.2088Z" fill="#CFDBEA"/>
</g>
<defs>
<clipPath id="clip0_16_7045">
<rect width="40" height="40" fill="white"/>
</clipPath>
</defs>
</svg>
