<svg width="40" height="40" viewBox="0 0 40 40" fill="none" xmlns="http://www.w3.org/2000/svg">
<path d="M35.9285 9.90356C33.2964 11.0981 30.2868 11.2325 27.5668 10.2552C24.7796 9.252 22.5095 7.17322 21.2529 4.49459C23.885 3.30007 26.8946 3.16562 29.6146 4.14296C32.4018 5.14615 34.6719 7.22493 35.9285 9.90356Z" fill="#CFDBEA"/>
<path d="M35.7158 16.255C35.7158 18.7113 34.0507 20.8728 31.7134 21.5243C30.6895 19.7403 28.9054 18.4527 26.8112 18.0907C26.9715 17.4961 27.0594 16.8807 27.0594 16.255C27.0594 14.9571 26.6974 13.747 26.082 12.7025C26.3923 12.3405 26.7491 12.0199 27.1473 11.751C27.7937 11.9733 28.4556 12.1492 29.1278 12.2681C29.1588 12.6507 29.4691 12.961 29.8673 12.9765C29.8828 12.9765 31.5996 13.0489 32.5045 14.0418C32.9182 14.4865 33.0992 15.0605 33.0578 15.7896C33.0371 16.2188 33.3629 16.5808 33.7921 16.6066H33.8335C34.242 16.6066 34.5833 16.286 34.6092 15.8723C34.6712 14.7192 34.3454 13.747 33.6422 12.9869C33.4146 12.7387 33.1613 12.5318 32.8924 12.356C33.2285 12.3146 33.5646 12.2526 33.8956 12.1853C35.0487 13.2247 35.7158 14.6985 35.7158 16.255Z" fill="#CFDBEA"/>
<path d="M27.5563 32.5587C27.5563 35.5734 25.1 38.0297 22.0853 38.0297C19.0654 38.0297 16.6143 35.5734 16.6143 32.5587C16.6143 32.3622 16.6246 32.1657 16.6453 31.9692C16.9245 32.0054 17.2038 32.026 17.4933 32.026C20.4977 32.026 23.0626 30.1231 24.0606 27.46C26.1446 28.2667 27.5563 30.2885 27.5563 32.5587Z" fill="#CFDBEA"/>
<path d="M31.0935 25.0042C31.0935 27.0158 30.1058 28.7481 28.4873 29.6841C27.7116 27.9673 26.2689 26.5969 24.4435 25.9454C24.4848 25.6351 24.5159 25.3248 24.5159 25.0042C24.5159 23.2202 23.8436 21.5965 22.7422 20.3554C23.6058 19.8228 24.5986 19.5332 25.6225 19.5332C28.6372 19.5332 31.0935 21.9895 31.0935 25.0042Z" fill="#CFDBEA"/>
<path d="M17.4935 19.5332C14.4787 19.5332 12.0225 21.9895 12.0225 25.0042C12.0225 28.019 14.4787 30.4752 17.4935 30.4752C20.5082 30.4752 22.9645 28.019 22.9645 25.0042C22.9645 21.9895 20.5082 19.5332 17.4935 19.5332ZM21.0046 26.933C20.8754 27.2278 20.591 27.4036 20.291 27.4036C20.1876 27.4036 20.0842 27.3829 19.9859 27.3416C19.5929 27.1709 19.412 26.7159 19.5774 26.3228C20.7668 23.546 18.6259 22.4238 18.3777 22.3049C17.9951 22.1187 17.8296 21.6585 18.0106 21.2707C18.1916 20.888 18.6466 20.7174 19.0345 20.8984C20.3479 21.5086 22.4526 23.5511 21.0046 26.933Z" fill="#CFDBEA"/>
<path d="M14.2407 12.2932C13.2324 11.3262 11.8879 10.7832 10.471 10.7832C7.45627 10.7832 5 13.2395 5 16.2542C5 19.269 7.45627 21.7252 10.471 21.7252C10.7554 21.7252 11.0398 21.7046 11.3191 21.658C11.8724 20.6393 12.6791 19.7706 13.6461 19.1345C13.2324 18.2296 13.0152 17.2626 13.0152 16.2542C13.0152 14.7856 13.4702 13.4205 14.2407 12.2932ZM9.09033 13.3843C8.99208 13.4463 6.96502 14.7908 7.83376 16.8644C7.99923 17.2574 7.81825 17.7125 7.42007 17.8779C7.32182 17.9193 7.2184 17.94 7.12015 17.94C6.82022 17.94 6.53064 17.7642 6.40654 17.4643C5.29475 14.827 7.13049 12.7844 8.25779 12.0708C8.61976 11.8433 9.10068 11.9519 9.3282 12.3138C9.55573 12.6758 9.44714 13.1516 9.09033 13.3843Z" fill="#CFDBEA"/>
<path d="M20.0379 10.7837C19.7665 10.7837 19.5017 10.8101 19.2406 10.8483C19.8368 9.13928 20.6993 6.18814 20.9444 2.8321C20.976 2.40497 20.6543 2.03317 20.2272 2.00214C19.8073 1.97059 19.4283 2.29172 19.3972 2.71937C19.0916 6.90227 17.7347 10.5194 17.3386 11.5014C15.6849 12.4441 14.5664 14.2204 14.5664 16.2552C14.5664 17.0205 14.7267 17.7497 15.0266 18.4374C15.7971 18.1478 16.6245 17.9824 17.4932 17.9824C19.0084 17.9824 20.4046 18.4684 21.5526 19.2855C22.6281 18.5202 23.9002 18.0754 25.2189 17.9979C25.4055 17.4389 25.509 16.8545 25.509 16.2547C25.509 13.24 23.0527 10.7837 20.0379 10.7837Z" fill="#CFDBEA"/>
</svg>
