<svg width="40" height="40" viewBox="0 0 40 40" fill="none" xmlns="http://www.w3.org/2000/svg">
<g clip-path="url(#clip0_16_7025)">
<path d="M24.8775 0C17.7262 0 12.0482 2.08523 10.3193 5.08516C12.0422 4.82367 13.8214 4.6875 15.5768 4.6875C23.9761 4.6875 33.0158 7.6218 33.0158 14.0625C33.0158 15.3774 32.5889 17.2795 30.635 19.0784L30.6717 30.4688H34.1506C36.0922 30.4688 37.6662 28.8948 37.6662 26.9531V11.4533C37.6662 11.1111 37.8047 10.793 38.0375 10.6019C39.6519 9.27781 39.9914 7.92969 39.9914 7.03133C39.9914 3.02242 33.4938 0 24.8775 0Z" fill="#CFDBEA"/>
<path d="M15.2441 7.1875C6.55922 7.1875 0.00976562 10.2099 0.00976562 14.2188C0.00976562 15.1171 0.351953 16.4652 1.9793 17.7893C2.21391 17.9804 2.35352 18.2986 2.35352 18.6407V36.4844C2.35352 38.423 3.93055 40 5.86914 40H24.6191C26.5577 40 28.1348 38.423 28.1348 36.4844V18.6408C28.1348 18.2986 28.2744 17.9805 28.509 17.7894C30.1363 16.4653 30.4785 15.1172 30.4785 14.2188C30.4785 10.2099 23.9291 7.1875 15.2441 7.1875ZM9.72805 21.5934L14.4155 16.9059C14.8733 16.4481 15.6149 16.4481 16.0727 16.9059C16.5304 17.3636 16.5304 18.1052 16.0727 18.563L11.3852 23.2505C11.1562 23.4794 10.8564 23.5938 10.5566 23.5938C10.2569 23.5938 9.95695 23.4794 9.72812 23.2505C9.27031 22.7927 9.27031 22.0511 9.72805 21.5934ZM20.7602 27.9379L16.0727 32.6254C15.6148 33.0832 14.8734 33.0832 14.4155 32.6254C13.9578 32.1677 13.9578 31.426 14.4155 30.9683L19.103 26.2808C19.5608 25.823 20.3024 25.823 20.7602 26.2808C21.2179 26.7385 21.218 27.4802 20.7602 27.9379ZM20.7602 20.9066L11.3852 30.2816C10.9273 30.7395 10.1859 30.7395 9.72805 30.2816C9.27031 29.8239 9.27031 29.0823 9.72805 28.6245L19.103 19.2495C19.5608 18.7918 20.3024 18.7918 20.7602 19.2495C21.2179 19.7073 21.218 20.4489 20.7602 20.9066Z" fill="#CFDBEA"/>
</g>
<defs>
<clipPath id="clip0_16_7025">
<rect width="40" height="40" fill="white"/>
</clipPath>
</defs>
</svg>
