<svg width="40" height="40" viewBox="0 0 40 40" fill="none" xmlns="http://www.w3.org/2000/svg">
<g clip-path="url(#clip0_16_7029)">
<path d="M39.8433 5.27602C40.0523 5.45117 40.0523 5.77305 39.8433 5.9482C38.6254 6.96875 34.651 9.96242 29.936 9.96242C25.0882 9.96242 22.4801 6.79766 21.8178 5.86672C21.7092 5.71391 21.7092 5.51023 21.8178 5.35742C22.4801 4.42648 25.0882 1.26172 29.936 1.26172C34.651 1.2618 38.6254 4.25547 39.8433 5.27602Z" fill="#CFDBEA"/>
<path d="M39.8434 5.27598C39.2631 4.78965 38.056 3.85566 36.4421 3.01074C34.3779 4.58152 29.9886 7.3791 24.9064 7.3791C24.2508 7.3791 23.6282 7.33246 23.0381 7.24793C24.3523 8.48168 26.6201 9.96238 29.9361 9.96238C34.6511 9.96238 38.6255 6.96871 39.8434 5.94816C40.0525 5.77301 40.0525 5.45113 39.8434 5.27598Z" fill="#CFDBEA"/>
<path d="M21.8179 5.86691C22.4802 6.79785 25.0883 9.96262 29.9361 9.96262C34.6511 9.96262 38.6255 6.96895 39.8434 5.9484C39.9479 5.86082 40.0002 5.73652 40.0002 5.6123H21.7363C21.7363 5.70137 21.7635 5.79051 21.8179 5.86691Z" fill="#CFDBEA"/>
<path d="M32.1778 5.6123C30.1129 6.58879 27.6076 7.37934 24.9064 7.37934C24.2508 7.37934 23.6282 7.3327 23.0381 7.24816C24.3523 8.48184 26.6201 9.96262 29.9361 9.96262C34.6511 9.96262 38.6255 6.96895 39.8434 5.9484C39.9479 5.86082 40.0002 5.73652 40.0002 5.6123H32.1778Z" fill="#CFDBEA"/>
<path d="M33.2796 17.8067C31.1819 17.3185 29.0338 18.377 28.1292 20.3317C27.7196 21.217 27.0331 21.9836 26.1117 22.488C25.1898 22.9926 24.1736 23.1577 23.2067 23.0253C21.1132 22.7389 19.0739 23.9187 18.3426 25.901C17.5486 28.053 17.664 30.4473 19.024 32.9317C22.0025 38.373 30.2912 40.5596 34.6869 38.1534C39.0826 35.7472 41.7074 27.5867 38.7288 22.1454C37.3903 19.7005 35.4759 18.3178 33.2796 17.8067Z" fill="#CFDBEA"/>
<path d="M38.7287 22.1458C37.3904 19.7008 35.4759 18.3182 33.2797 17.8071C32.8356 17.7037 32.3895 17.6705 31.9532 17.6995C32.7306 18.3773 33.4232 19.2407 34.0063 20.3059C36.9848 25.7473 34.3601 33.9077 29.9645 36.3139C28.1195 37.3238 25.5888 37.5243 23.0527 37.015C26.7691 39.2875 31.6544 39.8138 34.6869 38.1538C39.0826 35.7476 41.7073 27.5872 38.7287 22.1458Z" fill="#CFDBEA"/>
<path d="M27.1022 24.1511C26.9524 24.1511 26.8025 24.0965 26.6845 23.9861L25.9249 23.2756C21.6188 19.2471 19.6299 13.37 20.6048 7.55455L21.2236 3.8622C21.2795 3.52916 21.5949 3.30439 21.9279 3.36001C22.2611 3.41587 22.4859 3.73119 22.4301 4.06431L21.8113 7.75673C20.9044 13.167 22.7546 18.6345 26.7607 22.3823L27.5202 23.0928C27.7669 23.3235 27.7798 23.7106 27.549 23.9574C27.4286 24.086 27.2656 24.1511 27.1022 24.1511Z" fill="#CFDBEA"/>
<path d="M19.7673 20.4795C18.1616 19.044 15.7691 18.941 14.037 20.2213C13.2526 20.8011 12.2823 21.144 11.2319 21.144C10.1809 21.144 9.21031 20.8008 8.42562 20.2205C6.72687 18.964 4.37156 19.0197 2.77813 20.4075C1.04836 21.9139 0 24.0696 0 26.9018C0 33.105 6.22078 39.0029 11.2319 39.0029C16.243 39.0029 22.4638 33.105 22.4638 26.9018C22.4638 24.1144 21.4484 21.9824 19.7673 20.4795Z" fill="#CFDBEA"/>
<path d="M19.7677 20.48C19.3085 20.0695 18.785 19.7686 18.2311 19.5771C18.7564 20.6954 19.0458 21.9963 19.0458 23.4839C19.0458 29.6871 12.8251 35.585 7.81391 35.585C6.02547 35.585 4.08305 34.8333 2.32422 33.585C4.59195 36.7596 8.14187 39.0033 11.2323 39.0033C16.2435 39.0033 22.4642 33.1054 22.4642 26.9022C22.4642 24.1149 21.4487 21.9829 19.7677 20.48Z" fill="#CFDBEA"/>
<path d="M11.2513 23.8152C10.9135 23.8152 10.6396 23.5414 10.6396 23.2036V20.2069C10.6396 14.0931 13.6807 8.42415 18.7746 5.04274L22.0129 2.89313C22.2943 2.70633 22.6739 2.78297 22.8608 3.06454C23.0476 3.34594 22.9709 3.72555 22.6894 3.91243L19.4511 6.06204C14.6996 9.2161 11.863 14.5039 11.863 20.2069V23.2036C11.863 23.5414 11.5891 23.8152 11.2513 23.8152Z" fill="#CFDBEA"/>
<path d="M21.9947 4.36177L21.571 3.70005C21.2929 3.26583 21.4207 2.68302 21.8549 2.40497L24.0143 1.02216C24.4485 0.744112 25.0313 0.871846 25.3093 1.30606L25.7331 1.96778C26.0111 2.402 25.8834 2.98481 25.4492 3.26286L23.2898 4.64567C22.8556 4.9238 22.2728 4.79599 21.9947 4.36177Z" fill="#CFDBEA"/>
<path d="M25.575 1.7207L23.6026 2.98375C23.1684 3.2618 22.5856 3.13406 22.3076 2.69984L22.0419 2.285L21.8549 2.40477C21.4207 2.68281 21.2929 3.26562 21.571 3.69984L21.9947 4.36156C22.2728 4.79578 22.8556 4.92359 23.2898 4.64547L25.4492 3.26273C25.8834 2.98469 26.0112 2.40187 25.7331 1.96766L25.575 1.7207Z" fill="#CFDBEA"/>
</g>
<defs>
<clipPath id="clip0_16_7029">
<rect width="40" height="40" fill="white"/>
</clipPath>
</defs>
</svg>
