<svg width="16" height="15" viewBox="0 0 16 15" fill="none" xmlns="http://www.w3.org/2000/svg">
<path d="M7.99985 12.3952L4.54152 14.4785C4.38874 14.5757 4.22902 14.6174 4.06235 14.6035C3.89568 14.5896 3.74985 14.5341 3.62485 14.4368C3.49985 14.3396 3.40263 14.2181 3.33318 14.0723C3.26374 13.9264 3.24985 13.7632 3.29152 13.5827L4.20818 9.64518L1.14568 6.99935C1.00679 6.87435 0.919989 6.73199 0.885266 6.57227C0.850544 6.41254 0.860961 6.25629 0.916516 6.10352C0.972072 5.95074 1.05541 5.82574 1.16652 5.72852C1.27763 5.63129 1.43041 5.56879 1.62485 5.54102L5.66652 5.18685L7.22902 1.47852C7.29846 1.31185 7.4061 1.18685 7.55193 1.10352C7.69777 1.02018 7.84707 0.978516 7.99985 0.978516C8.15263 0.978516 8.30193 1.02018 8.44777 1.10352C8.5936 1.18685 8.70124 1.31185 8.77068 1.47852L10.3332 5.18685L14.3748 5.54102C14.5693 5.56879 14.7221 5.63129 14.8332 5.72852C14.9443 5.82574 15.0276 5.95074 15.0832 6.10352C15.1387 6.25629 15.1492 6.41254 15.1144 6.57227C15.0797 6.73199 14.9929 6.87435 14.854 6.99935L11.7915 9.64518L12.7082 13.5827C12.7498 13.7632 12.736 13.9264 12.6665 14.0723C12.5971 14.2181 12.4998 14.3396 12.3748 14.4368C12.2498 14.5341 12.104 14.5896 11.9373 14.6035C11.7707 14.6174 11.611 14.5757 11.4582 14.4785L7.99985 12.3952Z" fill="#6A42DB"/>
</svg>
