<svg width="40" height="40" viewBox="0 0 40 40" fill="none" xmlns="http://www.w3.org/2000/svg">
<g clip-path="url(#clip0_16_7035)">
<path d="M19.2499 34.1669V24.0002C19.2499 23.1669 18.2499 22.8335 17.7499 23.3336L10.5833 30.5002C10.2499 30.8336 10.2499 31.5002 10.6666 31.8335C12.8332 33.5835 15.4999 34.6669 18.3333 35.0002C18.7499 35.1669 19.2499 34.6669 19.2499 34.1669Z" fill="#CFDBEA"/>
<path d="M8.08353 10.583C6.33352 12.7496 5.25016 15.4163 4.91687 18.2497C4.83353 18.7496 5.25023 19.2497 5.83355 19.2497H16.0002C16.8335 19.2497 17.1669 18.2497 16.6668 17.7497L9.50017 10.583C9.08354 10.1663 8.41689 10.1663 8.08353 10.583Z" fill="#CFDBEA"/>
<path d="M4.91638 21.75C5.24975 24.6666 6.41637 27.2499 8.08304 29.4167C8.41641 29.8333 8.99972 29.8333 9.41634 29.5L16.583 22.3334C17.1663 21.75 16.7497 20.8334 15.9163 20.8334H5.83306C5.33301 20.75 4.83304 21.25 4.91638 21.75Z" fill="#CFDBEA"/>
<path d="M35.0831 18.2502C34.7497 15.3336 33.5831 12.7502 31.9164 10.5835C31.583 10.1669 30.9997 10.1669 30.5831 10.5002L23.4164 17.6668C22.8331 18.2501 23.2498 19.1668 24.0831 19.1668H34.2498C34.6664 19.2502 35.1664 18.7502 35.0831 18.2502Z" fill="#CFDBEA"/>
<path d="M19.2502 16.0003V5.83367C19.2502 5.3337 18.8336 4.91699 18.2502 4.91699C15.3336 5.25036 12.7502 6.41698 10.5835 8.08365C10.1669 8.41702 10.1669 9.00033 10.5002 9.41695L17.6668 16.5836C18.2503 17.167 19.2502 16.8336 19.2502 16.0003Z" fill="#CFDBEA"/>
<path d="M20.75 5.83326V15.9999C20.75 16.8332 21.75 17.1666 22.25 16.6665L29.4166 9.49989C29.75 9.16652 29.75 8.49987 29.3333 8.16658C27.1667 6.41657 24.5 5.33321 21.6666 4.99993C21.25 4.83324 20.75 5.24995 20.75 5.83326Z" fill="#CFDBEA"/>
<path d="M31.9169 29.4167C33.6669 27.2501 34.7502 24.5834 35.0835 21.75C35.1669 21.25 34.7502 20.75 34.1669 20.75H24.0002C23.1669 20.75 22.8335 21.75 23.3336 22.25L30.5002 29.4166C30.9169 29.8333 31.5835 29.8333 31.9169 29.4167Z" fill="#CFDBEA"/>
<path d="M21.75 35.0831C24.6666 34.7497 27.2499 33.5831 29.4167 31.9164C29.8333 31.583 29.8333 30.9997 29.5 30.5831L22.3334 23.4164C21.75 22.8331 20.8334 23.2498 20.8334 24.0831V34.2498C20.75 34.6664 21.25 35.1664 21.75 35.0831Z" fill="#CFDBEA"/>
<path d="M20 0C8.91666 0 0 8.91666 0 20C0 20.2501 0 20.5 0 20.75C0.416628 31.4167 9.16669 40 20 40C30.8334 40 39.5834 31.4167 40 20.75C40 20.5 40 20.2501 40 20C40 8.91666 31.0833 0 20 0ZM20 37.3333C10.6667 37.3333 3.0834 29.9166 2.66669 20.75C2.66669 20.4999 2.66669 20.25 2.66669 20C2.66669 10.4166 10.4167 2.66661 20 2.66661C29.5834 2.66661 37.3334 10.4166 37.3334 20C37.3334 20.25 37.3334 20.4999 37.3334 20.75C36.9167 30 29.3333 37.3333 20 37.3333Z" fill="#CFDBEA"/>
</g>
<defs>
<clipPath id="clip0_16_7035">
<rect width="40" height="40" fill="white"/>
</clipPath>
</defs>
</svg>
