<svg width="40" height="40" viewBox="0 0 40 40" fill="none" xmlns="http://www.w3.org/2000/svg">
<path d="M7.81934 17.619C7.81934 20.2476 9.95264 22.3809 12.5812 22.3809C13.5812 22.3809 14.5145 22.0666 15.2765 21.5428L15.2384 21.9046C15.2384 24.5332 17.3717 26.6665 20.0002 26.6665C22.6288 26.6665 24.7621 24.5332 24.7621 21.9046L24.724 21.5428C25.4954 22.0761 26.4192 22.3809 27.4192 22.3809C30.0478 22.3809 32.1811 20.2476 32.1811 17.619C32.1811 15.7238 31.0668 14.0952 29.4573 13.3333C31.0573 12.5714 32.1811 10.9429 32.1811 9.04759C32.1811 6.41902 30.0478 4.28571 27.4192 4.28571C26.4192 4.28571 25.4859 4.6 24.724 5.12384L24.7621 4.76196C24.7622 2.1333 22.6289 0 20.0003 0C17.3717 0 15.2384 2.1333 15.2384 4.76188L15.2766 5.12375C14.5051 4.59045 13.5813 4.28571 12.5813 4.28571C9.95273 4.28571 7.81943 6.41902 7.81943 9.04759C7.81943 10.9429 8.93371 12.5714 10.5433 13.3333C8.93362 14.0953 7.81934 15.7238 7.81934 17.619ZM20.0003 8.57143C22.6289 8.57143 24.7622 10.7047 24.7622 13.3333C24.7622 15.9619 22.6289 18.0953 20.0003 18.0953C17.3717 18.0953 15.2384 15.962 15.2384 13.3334C15.2384 10.7048 17.3717 8.57143 20.0003 8.57143Z" fill="#CFDBEA"/>
<path d="M2.85742 22.8574C2.85742 32.3241 10.5336 40.0003 20.0003 40.0003C20.0003 30.5336 12.3241 22.8574 2.85742 22.8574Z" fill="#CFDBEA"/>
<path d="M20 40.0003C29.4667 40.0003 37.1429 32.3241 37.1429 22.8574C27.6762 22.8574 20 30.5336 20 40.0003Z" fill="#CFDBEA"/>
</svg>
