<svg width="24" height="24" viewBox="0 0 24 24" fill="none" xmlns="http://www.w3.org/2000/svg">
<path d="M11.8932 1.5C13.9503 1.5 15.8529 1.89999 17.601 2.69998C19.3492 3.49996 20.7312 4.58778 21.747 5.96344C22.7629 7.33908 23.2708 8.83955 23.2708 10.4649C23.2708 12.0903 22.7629 13.5929 21.747 14.9728C20.7312 16.3527 19.3513 17.4426 17.6074 18.2426C15.8635 19.0425 13.9588 19.4426 11.8932 19.4426C11.2414 19.4426 10.5683 19.396 9.87422 19.3029C6.86048 21.3938 5.25628 22.452 5.06156 22.4774C4.96847 22.5113 4.87959 22.5071 4.79494 22.4647C4.76105 22.4393 4.73564 22.4055 4.71872 22.3631C4.7018 22.3208 4.69331 22.2827 4.69331 22.2488V22.1981C4.74412 21.8679 5.1293 20.4923 5.84887 18.0712C4.21503 17.2585 2.9177 16.1813 1.95687 14.8395C0.996042 13.4977 0.515625 12.0395 0.515625 10.4649C0.515625 8.83955 1.02355 7.33908 2.03941 5.96344C3.05527 4.58778 4.43725 3.49996 6.18539 2.69998C7.9335 1.89999 9.83611 1.5 11.8932 1.5ZM6.12825 12.8395V8.94112H7.13137C7.26684 8.94112 7.40864 8.89247 7.55677 8.79511C7.70494 8.69775 7.779 8.56444 7.779 8.39512C7.779 8.22581 7.71127 8.08402 7.57584 7.96973C7.44037 7.85545 7.30917 7.79831 7.18219 7.79831H3.88065C3.73673 7.79831 3.60129 7.84064 3.4743 7.9253C3.34732 8.00995 3.28383 8.14964 3.28383 8.34431C3.28383 8.53903 3.35156 8.6872 3.487 8.78878C3.62245 8.89036 3.77483 8.94112 3.94414 8.94112H4.94728V12.8395C4.94728 13.0511 4.99809 13.2247 5.09967 13.3601C5.20125 13.4955 5.34516 13.5633 5.53139 13.5633C5.71767 13.5633 5.86369 13.4871 5.96948 13.3347C6.07533 13.1823 6.12825 13.0173 6.12825 12.8395ZM11.6265 13.5633C11.9398 13.4448 12.0371 13.1443 11.9186 12.6617C11.8847 12.5517 11.6456 11.8935 11.2012 10.6871C10.7567 9.4808 10.5007 8.793 10.4329 8.62369C10.2044 8.07342 9.89114 7.79831 9.49327 7.79831C9.0615 7.79831 8.72714 8.07342 8.49009 8.62369C8.42236 8.76759 8.16417 9.46814 7.71548 10.7252C7.26684 11.9824 7.03402 12.6278 7.01709 12.6617C6.95784 12.7379 6.94303 12.8776 6.97266 13.0807C7.00228 13.284 7.09331 13.4236 7.24566 13.4998C7.41497 13.576 7.58006 13.5845 7.74089 13.5252C7.90177 13.4659 8.01178 13.377 8.07103 13.2585L8.37581 12.4205H10.5853C10.6784 12.7252 10.7461 12.9241 10.7885 13.0173C10.8308 13.1019 10.8773 13.1866 10.9282 13.2712C10.9789 13.3559 11.0721 13.4384 11.2075 13.5188C11.343 13.5993 11.4826 13.6141 11.6265 13.5633ZM15.0424 13.5633C15.2201 13.5633 15.3831 13.5083 15.5312 13.3982C15.6794 13.2882 15.7535 13.14 15.7535 12.9538C15.7535 12.7675 15.6857 12.6215 15.5503 12.5157C15.4148 12.4099 15.2455 12.357 15.0424 12.357H13.6328V8.52211C13.6328 8.34431 13.58 8.17927 13.4741 8.02688C13.3683 7.87448 13.2223 7.79831 13.036 7.79831C12.8498 7.79831 12.7059 7.86605 12.6043 8.00147C12.5027 8.13694 12.4519 8.31047 12.4519 8.52211V12.8395C12.4519 13.0511 12.5027 13.2247 12.6043 13.3601C12.7059 13.4955 12.8498 13.5633 13.036 13.5633C13.0445 13.5633 13.0593 13.5612 13.0805 13.557C13.1017 13.5527 13.1165 13.5506 13.125 13.5506C13.1334 13.5506 13.1482 13.5527 13.1694 13.557C13.1905 13.5612 13.2053 13.5633 13.2138 13.5633H15.0424ZM20.0454 13.4744C20.1894 13.3389 20.2613 13.1844 20.2613 13.0109C20.2613 12.8374 20.2063 12.6829 20.0962 12.5475C20.0454 12.4712 19.5121 11.7559 18.4963 10.4014C18.9873 9.90197 19.4825 9.40252 19.982 8.90306C20.109 8.77608 20.1872 8.6258 20.2169 8.45227C20.2465 8.27873 20.1978 8.11575 20.0708 7.96341C19.9269 7.82794 19.7724 7.77291 19.6073 7.79831C19.4423 7.82372 19.2878 7.90837 19.1439 8.05228C19.1185 8.07769 19.0084 8.18981 18.8137 8.38875C18.619 8.58773 18.3672 8.84381 18.0582 9.15703C17.7492 9.47025 17.4762 9.74958 17.2392 9.99511V8.52211C17.2392 8.34431 17.1862 8.17927 17.0804 8.02688C16.9746 7.87448 16.8286 7.79831 16.6424 7.79831C16.4561 7.79831 16.3122 7.86605 16.2106 8.00147C16.109 8.13694 16.0582 8.31047 16.0582 8.52211V12.8395C16.0582 13.0511 16.109 13.2247 16.2106 13.3601C16.3122 13.4955 16.4561 13.5633 16.6424 13.5633C16.8286 13.5633 16.9746 13.4871 17.0804 13.3347C17.1862 13.1823 17.2392 13.0173 17.2392 12.8395V11.684C17.273 11.6501 17.3365 11.5845 17.4296 11.4871C17.5228 11.3898 17.5989 11.3115 17.6582 11.2522C18.2169 12.0141 18.7164 12.6871 19.1566 13.2712C19.2751 13.4321 19.4127 13.5358 19.5693 13.5824C19.7259 13.6289 19.8846 13.5929 20.0454 13.4744ZM8.71866 11.2776L9.49327 9.00464L10.2551 11.2776H8.71866Z" fill="black"/>
</svg>
