<svg width="40" height="40" viewBox="0 0 40 40" fill="none" xmlns="http://www.w3.org/2000/svg">
<path d="M36.0942 27.5895C33.0335 27.5895 30.5436 24.0682 30.5436 19.7398C30.5436 15.4114 33.0335 11.89 36.0942 11.89C36.5817 11.89 37.0312 11.6266 37.2694 11.2011C37.5075 10.7757 37.4971 10.2549 37.2423 9.83926L33.5965 3.8942C33.3809 3.54269 33.016 3.30916 32.6065 3.26081C32.1968 3.21206 31.7879 3.35428 31.4961 3.64585C30.2282 4.91371 28.1655 4.91344 26.8978 3.64585C26.2836 3.03186 25.9455 2.21517 25.9453 1.34664C25.9452 0.602951 25.3422 0 24.5985 0H15.402C14.6583 0 14.0553 0.602951 14.0552 1.34664C14.0551 2.21517 13.7167 3.03186 13.1028 3.64585C11.8352 4.91371 9.77218 4.91344 8.50446 3.64585C8.21262 3.35428 7.80293 3.21206 7.39405 3.26081C6.98449 3.30916 6.61965 3.54269 6.40404 3.8942L2.75832 9.83926C2.50337 10.2549 2.493 10.7757 2.73125 11.2011C2.96936 11.6266 3.41878 11.89 3.90644 11.89C6.96712 11.89 9.45704 15.4114 9.45704 19.7398C9.45704 24.0682 6.96712 27.5895 3.90644 27.5895C3.44719 27.5895 3.01959 27.8235 2.77205 28.2103C2.52438 28.5971 2.49112 29.0836 2.68357 29.5005L4.98265 34.4825C5.23328 35.0256 5.81199 35.339 6.40336 35.2503C6.49885 35.2363 16.0068 33.8916 18.7158 39.2598C18.9428 39.7095 19.4016 39.995 19.9052 39.9999C19.9095 39.9999 19.9138 39.9999 19.9182 39.9999C20.4168 39.9999 20.8753 39.7242 21.1087 39.283C24.0208 33.7793 33.5366 34.8599 33.6323 34.8715C34.1978 34.9406 34.7451 34.6463 34.9998 34.1368L37.2989 29.5384C37.5076 29.1209 37.4853 28.6251 37.2399 28.2281C36.9945 27.8312 36.561 27.5895 36.0942 27.5895ZM20.943 31.2356C20.943 31.7563 20.5209 32.1783 20.0003 32.1783C19.4796 32.1783 19.0575 31.7563 19.0575 31.2356V30.6295C19.0575 30.1089 19.4796 29.6868 20.0003 29.6868C20.5209 29.6868 20.943 30.1089 20.943 30.6295V31.2356ZM20.943 26.7215C20.943 27.2421 20.5209 27.6642 20.0003 27.6642C19.4796 27.6642 19.0575 27.2421 19.0575 26.7215V25.5868C19.0575 25.0662 19.4796 24.6441 20.0003 24.6441C20.5209 24.6441 20.943 25.0662 20.943 25.5868V26.7215ZM20.943 21.6789C20.943 22.1996 20.5209 22.6216 20.0003 22.6216C19.4796 22.6216 19.0575 22.1996 19.0575 21.6789V20.5442C19.0575 20.0236 19.4796 19.6015 20.0003 19.6015C20.5209 19.6015 20.943 20.0236 20.943 20.5442V21.6789ZM20.943 16.6362C20.943 17.1568 20.5209 17.5789 20.0003 17.5789C19.4796 17.5789 19.0575 17.1568 19.0575 16.6362V15.5016C19.0575 14.981 19.4796 14.5589 20.0003 14.5589C20.5209 14.5589 20.943 14.981 20.943 15.5016V16.6362ZM20.943 11.5937C20.943 12.1144 20.5209 12.5364 20.0003 12.5364C19.4796 12.5364 19.0575 12.1144 19.0575 11.5937V10.459C19.0575 9.93839 19.4796 9.51631 20.0003 9.51631C20.5209 9.51631 20.943 9.93839 20.943 10.459V11.5937ZM20.943 6.55111C20.943 7.07178 20.5209 7.49386 20.0003 7.49386C19.4796 7.49386 19.0575 7.07178 19.0575 6.55111V5.94507C19.0575 5.4244 19.4796 5.00232 20.0003 5.00232C20.5209 5.00232 20.943 5.4244 20.943 5.94507V6.55111Z" fill="#CFDBEA"/>
</svg>
