<svg width="38" height="39" viewBox="0 0 38 39" fill="none" xmlns="http://www.w3.org/2000/svg">
<path d="M18.9849 31.7076C18.6459 31.7076 18.3054 31.6467 17.9634 31.5249C17.6213 31.4031 17.3204 31.2123 17.0605 30.9524L14.7861 28.885C11.9787 26.3253 9.47226 23.8107 7.26675 21.3413C5.06125 18.8719 3.9585 16.2265 3.9585 13.4049C3.9585 11.1578 4.71616 9.27661 6.23149 7.76128C7.74682 6.24595 9.62803 5.48828 11.8751 5.48828C13.1519 5.48828 14.413 5.78262 15.6584 6.37131C16.9037 6.95999 18.0176 7.91609 19.0001 9.23959C19.9826 7.91609 21.0965 6.95999 22.3419 6.37131C23.5872 5.78262 24.8483 5.48828 26.1251 5.48828C28.3722 5.48828 30.2534 6.24595 31.7688 7.76128C33.2841 9.27661 34.0418 11.1578 34.0418 13.4049C34.0418 16.2569 32.9202 18.9318 30.6772 21.4296C28.4341 23.9275 25.9333 26.4207 23.1746 28.9093L20.9245 30.9524C20.6646 31.2123 20.3612 31.4031 20.0141 31.5249C19.6669 31.6467 19.3239 31.7076 18.9849 31.7076ZM17.8614 11.645C17.0047 10.3397 16.103 9.38315 15.156 8.7752C14.209 8.16723 13.1154 7.86324 11.8751 7.86324C10.2918 7.86324 8.97235 8.39102 7.91679 9.44658C6.86123 10.5021 6.33346 11.8216 6.33346 13.4049C6.33346 14.6756 6.74299 16.0042 7.56204 17.3906C8.3811 18.7771 9.40924 20.1553 10.6465 21.5255C11.8837 22.8957 13.224 24.2344 14.6672 25.5417C16.1105 26.849 17.4482 28.0639 18.6804 29.1865C18.7717 29.2677 18.8783 29.3083 19.0001 29.3083C19.1219 29.3083 19.2285 29.2677 19.3199 29.1865C20.5521 28.0639 21.8898 26.849 23.333 25.5417C24.7763 24.2344 26.1165 22.8957 27.3538 21.5255C28.591 20.1553 29.6191 18.7771 30.4382 17.3906C31.2573 16.0042 31.6668 14.6756 31.6668 13.4049C31.6668 11.8216 31.139 10.5021 30.0835 9.44658C29.0279 8.39102 27.7085 7.86324 26.1251 7.86324C24.8848 7.86324 23.7912 8.16723 22.8443 8.7752C21.8973 9.38315 20.9955 10.3397 20.1389 11.645C20.0049 11.848 19.8364 12.0002 19.6335 12.1017C19.4304 12.2032 19.2193 12.254 19.0001 12.254C18.7809 12.254 18.5698 12.2032 18.3668 12.1017C18.1638 12.0002 17.9953 11.848 17.8614 11.645Z" fill="#9FACBD"/>
</svg>
