<svg width="102" height="29" viewBox="0 0 102 29" fill="none" xmlns="http://www.w3.org/2000/svg">
<path d="M32.3846 20.2828C32.3846 21.458 32.1596 22.5673 31.7097 23.6105C31.273 24.6404 30.6643 25.545 29.8835 26.3241C29.116 27.09 28.2096 27.6974 27.1642 28.1464C26.132 28.5821 25.0271 28.8 23.8493 28.8C22.7907 28.8 21.7718 28.6151 20.7925 28.2454C19.8265 27.8757 18.9532 27.3343 18.1724 26.6212C17.3917 27.3343 16.5117 27.8757 15.5325 28.2454C14.5532 28.6151 13.5343 28.8 12.4757 28.8C11.2979 28.8 10.1864 28.5821 9.14096 28.1464C8.1088 27.6974 7.20234 27.09 6.4216 26.3241C5.65409 25.545 5.04538 24.6404 4.59546 23.6105C4.15877 22.5673 3.94043 21.458 3.94043 20.2828V0H9.6372V20.2828C9.6372 20.679 9.70998 21.0553 9.85554 21.4118C10.0011 21.7552 10.1996 22.0589 10.451 22.323C10.7157 22.5739 11.02 22.7719 11.3641 22.9172C11.7081 23.0625 12.0787 23.1351 12.4757 23.1351C12.8726 23.1351 13.2432 23.0625 13.5872 22.9172C13.9313 22.7719 14.229 22.5739 14.4804 22.323C14.7451 22.0589 14.9502 21.7552 15.0958 21.4118C15.2413 21.0553 15.3141 20.679 15.3141 20.2828V0H21.0109V20.2828C21.0109 20.679 21.0837 21.0553 21.2292 21.4118C21.3748 21.7552 21.5733 22.0589 21.8247 22.323C22.0894 22.5739 22.3937 22.7719 22.7378 22.9172C23.0818 23.0625 23.4523 23.1351 23.8493 23.1351C24.2463 23.1351 24.6168 23.0625 24.9609 22.9172C25.305 22.7719 25.6027 22.5739 25.8541 22.323C26.1188 22.0589 26.3239 21.7552 26.4695 21.4118C26.6282 21.0553 26.7076 20.679 26.7076 20.2828V0H32.3846V20.2828Z" fill="url(#paint0_linear_274_11905)"/>
<path d="M44.2608 0H38.1445V28.8H44.2608V0Z" fill="url(#paint1_linear_274_11905)"/>
<path d="M72.7877 28.6021H66.694L55.7173 9.90388V28.6021H50.0205V0.198242H56.1143L67.091 18.9163V0.198242H72.7877V28.6021Z" fill="url(#paint2_linear_274_11905)"/>
<path d="M98.0598 28.6021H78.5479V0.198242H98.0598V5.88297H84.2446V11.5677H93.5937V17.2524H84.2446V22.9174H98.0598V28.6021Z" fill="url(#paint3_linear_274_11905)"/>
<defs>
<linearGradient id="paint0_linear_274_11905" x1="4" y1="0.399901" x2="182.5" y2="51.8999" gradientUnits="userSpaceOnUse">
<stop stop-color="#6A42DB"/>
<stop offset="1" stop-color="#D842DB"/>
</linearGradient>
<linearGradient id="paint1_linear_274_11905" x1="2.5" y1="0.399903" x2="226" y2="63.3999" gradientUnits="userSpaceOnUse">
<stop stop-color="#6A42DB"/>
<stop offset="1" stop-color="#D842DB"/>
</linearGradient>
<linearGradient id="paint2_linear_274_11905" x1="4.5" y1="0.399904" x2="183.5" y2="52.8999" gradientUnits="userSpaceOnUse">
<stop stop-color="#6A42DB"/>
<stop offset="1" stop-color="#D842DB"/>
</linearGradient>
<linearGradient id="paint3_linear_274_11905" x1="34.5" y1="-2.6001" x2="160" y2="38.8999" gradientUnits="userSpaceOnUse">
<stop stop-color="#6A42DB"/>
<stop offset="1" stop-color="#D842DB"/>
</linearGradient>
</defs>
</svg>
