<svg width="104" height="30" viewBox="0 0 104 30" fill="none" xmlns="http://www.w3.org/2000/svg">
<path d="M32.6088 21.1279C32.6088 22.3521 32.3745 23.5076 31.9058 24.5942C31.4509 25.6671 30.8168 26.6094 30.0036 27.4209C29.2041 28.2187 28.2599 28.8514 27.1709 29.3191C26.0957 29.773 24.9447 30 23.7179 30C22.6152 30 21.5538 29.8074 20.5338 29.4223C19.5275 29.0371 18.6178 28.4732 17.8045 27.7304C16.9912 28.4732 16.0746 29.0371 15.0545 29.4223C14.0345 29.8074 12.9731 30 11.8703 30C10.6435 30 9.48567 29.773 8.39671 29.3191C7.32154 28.8514 6.37732 28.2187 5.56404 27.4209C4.76456 26.6094 4.13048 25.6671 3.66181 24.5942C3.20693 23.5076 2.97949 22.3521 2.97949 21.1279V0H8.91362V21.1279C8.91362 21.5406 8.98944 21.9326 9.14106 22.304C9.29269 22.6616 9.49945 22.978 9.76136 23.2531C10.037 23.5144 10.3541 23.7208 10.7125 23.8721C11.0709 24.0234 11.4568 24.099 11.8703 24.099C12.2839 24.099 12.6698 24.0234 13.0282 23.8721C13.3866 23.7208 13.6968 23.5144 13.9587 23.2531C14.2344 22.978 14.448 22.6616 14.5996 22.304C14.7513 21.9326 14.8271 21.5406 14.8271 21.1279V0H20.7612V21.1279C20.7612 21.5406 20.837 21.9326 20.9886 22.304C21.1403 22.6616 21.347 22.978 21.6089 23.2531C21.8846 23.5144 22.2017 23.7208 22.5601 23.8721C22.9184 24.0234 23.3044 24.099 23.7179 24.099C24.1315 24.099 24.5174 24.0234 24.8758 23.8721C25.2342 23.7208 25.5443 23.5144 25.8063 23.2531C26.0819 22.978 26.2956 22.6616 26.4472 22.304C26.6126 21.9326 26.6953 21.5406 26.6953 21.1279V0H32.6088V21.1279Z" fill="#101318"/>
<path d="M44.98 0H38.6089V30H44.98V0Z" fill="#101318"/>
<path d="M74.6958 29.7934H68.3482L56.9141 10.3161V29.7934H50.98V0.206055H57.3276L68.7617 19.704V0.206055H74.6958V29.7934Z" fill="#101318"/>
<path d="M101.021 29.7934H80.6958V0.206055H101.021V6.12765H86.6299V12.0492H96.3685V17.9708H86.6299V23.8718H101.021V29.7934Z" fill="#101318"/>
</svg>
