<svg width="40" height="40" viewBox="0 0 40 40" fill="none" xmlns="http://www.w3.org/2000/svg">
<path d="M18.5588 29.482L16.4902 37.035L27.1437 32.7736L25.0314 20.0996L18.5588 29.482Z" fill="#CFDBEA"/>
<path d="M19.335 6.60234L26.1406 15.6765L40 11.0567L31.4604 2.51711C31.1289 2.18562 30.6318 2.08359 30.1966 2.25765L19.335 6.60234Z" fill="#CFDBEA"/>
<path d="M6.69148 17.3721L0.847656 26.2557L10.25 24.1646L6.69148 17.3721Z" fill="#CFDBEA"/>
<path d="M17.2011 27.3269L24.2683 17.0828L17.6818 8.30078L15.7861 12.0923C15.6641 12.3361 15.4609 12.5298 15.2115 12.6398L8.42383 15.6338L12.9067 24.1907L17.2011 27.3269Z" fill="#CFDBEA"/>
<path d="M0 28.8421L4.16773 37.1776C4.36625 37.5746 4.77203 37.8254 5.21586 37.8254H13.8462L16.1398 29.4502L11.7338 26.2324L0 28.8421Z" fill="#CFDBEA"/>
<path d="M29.158 30.6194L35.6816 21.9213L39.856 13.5723L27.0293 17.8478L29.158 30.6194Z" fill="#CFDBEA"/>
</svg>
