<svg width="40" height="40" viewBox="0 0 40 40" fill="none" xmlns="http://www.w3.org/2000/svg">
<path d="M18.8347 24.3408H10.4727C10.7852 27.5442 11.443 30.7425 12.4 33.7017H18.8347V24.3408Z" fill="#CFDBEA"/>
<path d="M21.1748 24.3408V33.7017H27.6211C28.5769 30.7438 29.2341 27.5454 29.5464 24.3408H21.1748Z" fill="#CFDBEA"/>
<path d="M8.03519 39.6923C8.13855 39.8819 8.33644 39.9996 8.55176 39.9996H31.5134C31.7298 39.9996 31.9281 39.8811 32.031 39.6904C32.6382 38.5647 33.1974 37.3413 33.7025 36.041C32.9129 36.041 7.12887 36.041 6.34082 36.041C6.85457 37.3439 7.42176 38.5673 8.03519 39.6923Z" fill="#CFDBEA"/>
<path d="M8.1227 24.3408H3.57715C3.88988 27.5446 4.54777 30.7434 5.50441 33.7017H9.94809C9.04027 30.7178 8.41824 27.528 8.1227 24.3408Z" fill="#CFDBEA"/>
<path d="M30.0723 33.7017H34.5269C35.473 30.7318 36.1209 27.5339 36.4257 24.3408H31.8957C31.6003 27.5291 30.9789 30.7189 30.0723 33.7017Z" fill="#CFDBEA"/>
<path d="M32.0312 0.309453C31.9284 0.118594 31.73 0 31.5134 0H8.54922C8.3343 0 8.13648 0.1175 8.03297 0.306719C7.39633 1.47016 6.82555 2.71875 6.32812 3.98484H33.7136C33.2237 2.72609 32.6636 1.4832 32.0312 0.309453Z" fill="#CFDBEA"/>
<path d="M9.9373 6.32422H5.49324C4.54371 9.26609 3.88973 12.4612 3.57715 15.6763H8.12285C8.41855 12.4787 9.03691 9.29219 9.9373 6.32422Z" fill="#CFDBEA"/>
<path d="M36.5895 18.0166C35.4397 18.0166 6.14613 18.0166 3.41285 18.0166C3.35152 19.4346 3.3573 20.7761 3.4141 22.0014H36.5875C36.6471 20.6113 36.6444 19.2877 36.5895 18.0166Z" fill="#CFDBEA"/>
<path d="M18.8348 15.6763V6.32422H12.3887C11.4394 9.26555 10.7853 12.4609 10.4727 15.6763H18.8348Z" fill="#CFDBEA"/>
<path d="M21.1748 15.6763H29.5455C29.2338 12.4836 28.5793 9.28852 27.6279 6.32422H21.1748V15.6763Z" fill="#CFDBEA"/>
<path d="M31.8952 15.6763H36.4327C36.1217 12.4646 35.4752 9.26953 34.5386 6.32422H30.0781C30.9811 9.31219 31.6002 12.4988 31.8952 15.6763Z" fill="#CFDBEA"/>
</svg>
