<svg width="40" height="40" viewBox="0 0 40 40" fill="none" xmlns="http://www.w3.org/2000/svg">
<g clip-path="url(#clip0_16_7042)">
<path d="M39.2742 37.7439C38.5588 36.5759 37.9093 33.0929 36.6767 30.5361C34.0001 33.1786 30.3257 34.8124 26.2763 34.8124C25.9573 34.8124 25.6391 34.8008 25.3218 34.7804C24.4674 35.759 23.4858 36.6444 22.3799 37.4356C28.1411 39.9498 35.0733 39.9999 38.7976 39.9999C39.4312 39.9999 39.9734 39.5102 39.9993 38.8771C40.0201 38.3668 39.7145 37.9251 39.2742 37.7439Z" fill="#CFDBEA"/>
<path d="M19.9972 33.4171C18.0418 34.333 15.8978 34.8124 13.724 34.8124C9.67459 34.8124 6.00014 33.1785 3.32358 30.5361C2.09092 33.0929 1.44147 36.5758 0.726077 37.7439C0.285842 37.9251 -0.0197827 38.3668 0.000998583 38.8771C0.026858 39.5102 0.569045 39.9999 1.20264 39.9999C6.07905 39.9999 16.4551 39.9139 22.5011 34.3227C21.6416 34.0965 20.8031 33.7945 19.9972 33.4171Z" fill="#CFDBEA"/>
<path d="M13.7237 32.4688C20.5725 32.4688 26.1925 26.9196 26.1925 20C26.1925 19.3528 26.7171 18.8281 27.3643 18.8281C28.0115 18.8281 28.5362 19.3528 28.5362 20C28.5362 24.8753 26.1806 29.2002 22.5457 31.8994C23.7432 32.2747 24.9982 32.4688 26.2757 32.4688C33.1511 32.4688 38.7446 26.8753 38.7446 20C38.7446 9.55992 29.4773 5.15266 24.2772 2.66766C23.0443 2.07844 21.5246 1.35219 21.1528 0.96125C21.0535 0.414531 20.575 0 19.9997 0C19.4244 0 18.946 0.414531 18.8467 0.96125C18.4749 1.35219 16.9551 2.07852 15.7222 2.66766C8.6866 6.02984 1.25488 10.4717 1.25488 20C1.25488 26.8753 6.8484 32.4688 13.7237 32.4688Z" fill="#CFDBEA"/>
</g>
<defs>
<clipPath id="clip0_16_7042">
<rect width="40" height="40" fill="white"/>
</clipPath>
</defs>
</svg>
