<svg width="40" height="40" viewBox="0 0 40 40" fill="none" xmlns="http://www.w3.org/2000/svg">
<g clip-path="url(#clip0_16_7031)">
<path d="M30.7943 16.0563L23.9033 9.16507C23.3712 8.63295 22.9685 8.02021 22.6923 7.36621C19.6263 9.13554 15.8466 11.3328 12.5858 14.3034C9.26176 17.3318 7.93736 19.7597 6.97461 23.2766L16.6826 32.9846C20.1995 32.0219 22.6275 30.6975 25.6557 27.3734C28.6256 24.1135 30.8225 20.3349 32.5916 17.2693C31.9282 16.9885 31.3186 16.5805 30.7943 16.0563Z" fill="#CFDBEA"/>
<path d="M38.1758 6.86416L39.0155 6.02454C40.3281 4.71194 40.3281 2.57628 39.0155 1.26367L38.7499 0.998123C37.4373 -0.314478 35.3016 -0.314478 33.989 0.998123L33.1494 1.83775L38.1758 6.86416Z" fill="#CFDBEA"/>
<path d="M4.63837 24.2545C4.30508 23.9212 3.80288 23.8158 3.3678 23.9971C2.78138 24.2417 2.2427 24.6007 1.77988 25.0636L1.1412 25.7022C1.01635 25.827 0.914787 25.9751 0.85502 26.1412C0.69572 26.5842 0.812988 27.0589 1.12745 27.3732L12.5721 38.8178C12.6969 38.9426 12.845 39.0444 13.0111 39.1043C13.4542 39.2641 13.9292 39.1466 14.2438 38.8321L14.896 38.1797C15.3589 37.7168 15.7179 37.1782 15.9625 36.5917C16.1439 36.1567 16.0384 35.6545 15.7051 35.3212L4.63837 24.2545Z" fill="#CFDBEA"/>
<path d="M30.5331 2.53521C29.9039 1.90606 29.0674 1.55957 28.1776 1.55957C27.2879 1.55957 26.4514 1.90606 25.8223 2.53521L25.5609 2.79655C24.2622 4.09532 24.2623 6.20856 25.5609 7.50733L32.4518 14.3983C33.1013 15.0476 33.9542 15.3722 34.8072 15.3722C35.6602 15.3722 36.5132 15.0476 37.1626 14.3982L37.4239 14.1369C38.7227 12.8381 38.7227 10.7249 37.4239 9.42611L30.5331 2.53521Z" fill="#CFDBEA"/>
<path d="M1.17286 39.9854C1.78583 39.9854 2.3731 39.4464 2.34474 38.8135C2.3163 38.1786 1.82982 37.6416 1.17286 37.6416C0.559893 37.6416 -0.0273722 38.1806 0.000987133 38.8135C0.0294246 39.4484 0.515831 39.9854 1.17286 39.9854Z" fill="#CFDBEA"/>
<path d="M6.69728 38.9912C7.31024 38.9912 7.89751 38.4522 7.86915 37.8193C7.84071 37.1844 7.35423 36.6475 6.69728 36.6475C6.08431 36.6475 5.49704 37.1864 5.5254 37.8193C5.55384 38.4543 6.04032 38.9912 6.69728 38.9912Z" fill="#CFDBEA"/>
<path d="M2.167 34.4609C2.77997 34.4609 3.36724 33.922 3.33888 33.2891C3.31044 32.6541 2.82396 32.1172 2.167 32.1172C1.55403 32.1172 0.966768 32.6562 0.995128 33.2891C1.02357 33.924 1.50997 34.4609 2.167 34.4609Z" fill="#CFDBEA"/>
</g>
<defs>
<clipPath id="clip0_16_7031">
<rect width="40" height="40" fill="white"/>
</clipPath>
</defs>
</svg>
