<svg width="40" height="40" viewBox="0 0 40 40" fill="none" xmlns="http://www.w3.org/2000/svg">
<path d="M36.8691 16.4469C27.4135 19.3901 24.2255 26.2423 23.1502 30.571C23.0027 27.4867 22.8503 19.8049 24.3545 11.7585C24.3634 11.711 24.3564 11.6618 24.3345 11.6186C24.3125 11.5755 24.2769 11.5408 24.2332 11.52C24.1896 11.4992 24.1402 11.4934 24.0929 11.5036C24.0456 11.5137 24.0029 11.5393 23.9716 11.5762C22.4213 13.4195 18.0116 19.4304 17.6852 28.5038C17.6852 28.5038 15.0979 11.2284 3.73532 6.02009C3.69267 6.0005 3.64487 5.99505 3.5989 6.00456C3.55293 6.01407 3.51121 6.03803 3.47984 6.07294C3.44846 6.10785 3.42907 6.15188 3.42451 6.1986C3.41994 6.24532 3.43044 6.29227 3.45446 6.33259C5.05602 8.99244 11.4298 20.0838 11.4991 28.2656C11.4991 28.2656 7.16235 24.0758 2.2393 23.6218C2.19467 23.6178 2.14989 23.6276 2.11097 23.6498C2.07204 23.672 2.04082 23.7055 2.0215 23.746C2.00217 23.7864 1.99566 23.8318 2.00284 23.876C2.01001 23.9202 2.03053 23.9612 2.06165 23.9935C3.57907 25.5631 8.94954 31.2435 9.35782 33.4206L9.44977 33.9723H6.23102C6.12949 33.9706 6.03091 34.0065 5.95424 34.0731C5.87756 34.1397 5.8282 34.2322 5.81563 34.333C5.81016 34.3886 5.81639 34.4447 5.83392 34.4978C5.85145 34.5508 5.8799 34.5996 5.91743 34.641C5.95496 34.6824 6.00075 34.7155 6.05184 34.7381C6.10293 34.7608 6.15819 34.7725 6.21407 34.7724H32.8066C32.9082 34.7741 33.0068 34.7382 33.0834 34.6716C33.1601 34.605 33.2095 34.5124 33.222 34.4117C33.2275 34.3561 33.2213 34.2999 33.2037 34.2469C33.1862 34.1938 33.1578 34.145 33.1202 34.1036C33.0827 34.0622 33.0369 34.0292 32.9858 34.0065C32.9347 33.9839 32.8795 33.9723 32.8236 33.9723H28.2057C29.3439 25.6885 35.2213 18.8156 37.0957 16.806C37.1285 16.7705 37.1487 16.7251 37.1531 16.6769C37.1576 16.6287 37.146 16.5805 37.1201 16.5395C37.0943 16.4986 37.0557 16.4674 37.0103 16.4506C36.9649 16.4339 36.9153 16.4326 36.8691 16.4469Z" fill="#CFDBEA"/>
</svg>
