<svg width="40" height="40" viewBox="0 0 40 40" fill="none" xmlns="http://www.w3.org/2000/svg">
<path d="M22.0919 10.3799C19.3709 10.9867 20.2562 12.0467 16.9771 13.9147C15.5144 14.9771 14.1781 14.4064 13.1262 15.9285C12.0744 17.4506 10.1864 19.346 9.93887 21.1449C9.69144 22.9436 8.75988 22.0021 6.62535 23.8009C4.49082 25.5997 5.5848 25.4102 4.1823 26.425C2.77988 27.4399 2.48145 29.6593 2.48145 29.6593H37.4659C37.4659 29.6593 37.8783 28.5062 36.3934 27.1226C34.9085 25.7389 34.0836 21.7724 32.7225 21.4495C31.3614 21.1265 29.7526 19.1433 29.4639 18.4053C29.1753 17.6673 29.0928 16.5142 27.5666 15.3612C26.0405 14.2081 26.1643 12.7321 25.5456 12.1325C24.9269 11.5331 23.4336 10.0809 22.0919 10.3799Z" fill="#CFDBEA"/>
<path opacity="0.2" d="M37.4657 29.6595H35.0228C34.9048 29.2212 34.6181 28.6626 33.972 28.0603C32.4868 26.6766 31.6618 22.7103 30.3009 22.3868C28.94 22.0642 27.3314 20.0813 27.0423 19.3431C26.7541 18.6048 26.6712 17.4517 25.1455 16.2986C23.6189 15.1454 23.7431 13.6696 23.1243 13.0704C22.5759 12.5384 21.3407 11.3392 20.1338 11.2798C20.5518 10.9025 21.065 10.6087 22.0916 10.3798C23.4331 10.0814 24.9268 11.5329 25.5455 12.1329C26.1643 12.7321 26.04 14.2079 27.5666 15.3611C29.0924 16.5142 29.1753 17.6673 29.4635 18.4056C29.7525 19.1439 31.3611 21.1267 32.7221 21.4493C34.0838 21.7728 34.9079 25.7391 36.3931 27.1228C37.8783 28.5064 37.4657 29.6595 37.4657 29.6595Z" fill="#CFDBEA"/>
<path d="M19.9579 20.6568C19.8949 20.6568 19.8311 20.6416 19.7719 20.6095C17.9799 19.6365 16.4266 20.4094 16.3614 20.4428C16.1699 20.5407 15.9345 20.4658 15.8358 20.2747C15.737 20.0835 15.8108 19.8489 16.0016 19.7494C16.0813 19.7079 17.9769 18.746 20.1446 19.9228C20.3342 20.0257 20.4045 20.263 20.3016 20.4525C20.2307 20.5829 20.0965 20.6568 19.9579 20.6568Z" fill="#CFDBEA"/>
<path d="M23.7211 26.5581C23.6582 26.5581 23.5944 26.5429 23.5351 26.5108C21.7288 25.53 20.1418 26.3353 20.126 26.3434C19.9347 26.4432 19.6988 26.3688 19.599 26.1776C19.4993 25.9864 19.5735 25.7504 19.7648 25.6507C19.8444 25.6092 21.7402 24.6475 23.9079 25.8241C24.0975 25.927 24.1677 26.1643 24.0648 26.3538C23.994 26.4842 23.8597 26.5581 23.7211 26.5581Z" fill="#CFDBEA"/>
<path d="M24.9722 16.3463C24.9092 16.3463 24.8454 16.3311 24.7861 16.2989C22.9798 15.3183 21.3927 16.1234 21.3769 16.1316C21.1857 16.2311 20.9497 16.1572 20.85 15.9658C20.7503 15.7745 20.8245 15.5386 21.0157 15.4389C21.0954 15.3973 22.9911 14.4354 25.1589 15.6123C25.3485 15.7152 25.4187 15.9524 25.3158 16.142C25.245 16.2724 25.1107 16.3463 24.9722 16.3463Z" fill="#CFDBEA"/>
<path d="M12.3661 27.0923C12.3031 27.0923 12.2393 27.0771 12.1801 27.045C10.3881 26.0721 8.83485 26.845 8.76962 26.8783C8.57798 26.9762 8.34274 26.9013 8.24399 26.7102C8.14524 26.519 8.21899 26.2844 8.40977 26.1849C8.48946 26.1434 10.3852 25.1816 12.5529 26.3583C12.7425 26.4612 12.8127 26.6985 12.7098 26.888C12.639 27.0184 12.5047 27.0923 12.3661 27.0923Z" fill="#CFDBEA"/>
<path d="M14.7116 24.2709C14.3229 24.2709 14.0068 23.9547 14.0068 23.5661C14.0068 23.1775 14.323 22.8613 14.7116 22.8613C15.1002 22.8613 15.4164 23.1775 15.4164 23.5661C15.4164 23.9547 15.1002 24.2709 14.7116 24.2709ZM14.7116 23.4896C14.6694 23.4896 14.6351 23.5238 14.6351 23.5661C14.6351 23.6084 14.6694 23.6426 14.7116 23.6426C14.7538 23.6426 14.7881 23.6084 14.7881 23.5661C14.7881 23.5238 14.7537 23.4896 14.7116 23.4896Z" fill="#CFDBEA"/>
<path d="M23.7214 21.6927C23.3327 21.6927 23.0166 21.3766 23.0166 20.988C23.0166 20.5994 23.3328 20.2832 23.7214 20.2832C24.11 20.2832 24.4261 20.5994 24.4261 20.988C24.4261 21.3766 24.1099 21.6927 23.7214 21.6927ZM23.7214 20.9115C23.6792 20.9115 23.6449 20.9457 23.6449 20.988C23.6449 21.0302 23.6792 21.0645 23.7214 21.0645C23.7636 21.0645 23.7979 21.0302 23.7979 20.988C23.7979 20.9457 23.7636 20.9115 23.7214 20.9115Z" fill="#CFDBEA"/>
<path d="M18.3845 16.974C17.9958 16.974 17.6797 16.6578 17.6797 16.2692C17.6797 15.8806 17.9959 15.5645 18.3845 15.5645C18.773 15.5645 19.0892 15.8806 19.0892 16.2692C19.0892 16.6578 18.773 16.974 18.3845 16.974ZM18.3845 16.1927C18.3423 16.1927 18.308 16.227 18.308 16.2692C18.308 16.3114 18.3423 16.3457 18.3845 16.3457C18.4266 16.3457 18.4609 16.3114 18.4609 16.2692C18.4609 16.227 18.4266 16.1927 18.3845 16.1927Z" fill="#CFDBEA"/>
<path d="M30.1003 24.2709C29.7116 24.2709 29.3955 23.9547 29.3955 23.5661C29.3955 23.1775 29.7117 22.8613 30.1003 22.8613C30.4889 22.8613 30.805 23.1775 30.805 23.5661C30.805 23.9547 30.4889 24.2709 30.1003 24.2709ZM30.1003 23.4896C30.0581 23.4896 30.0238 23.5238 30.0238 23.5661C30.0238 23.6084 30.0581 23.6426 30.1003 23.6426C30.1425 23.6426 30.1768 23.6084 30.1768 23.5661C30.1768 23.5238 30.1425 23.4896 30.1003 23.4896Z" fill="#CFDBEA"/>
</svg>
