<svg width="40" height="40" viewBox="0 0 40 40" fill="none" xmlns="http://www.w3.org/2000/svg">
<g clip-path="url(#clip0_16_7037)">
<path d="M37.7779 16.7683C38.598 14.5761 38.9754 12.2858 38.8995 9.96005C38.8097 7.22255 38.1115 5.08912 37.6687 3.99357L32.2397 9.42255C33.5552 14.6792 34.1543 19.1828 34.0218 22.8163C34.0196 22.8772 34.0168 22.9365 34.0146 22.9953C35.6965 21.0441 36.9583 18.9566 37.7779 16.7683ZM30.2902 11.372L26.486 15.1762C28.0309 21.3572 28.097 25.7898 27.8958 28.3683C29.1398 27.4999 30.2725 26.6188 31.2916 25.725C31.6307 24.405 32.3134 20.137 30.2902 11.372ZM6.53891 20.9959C5.83789 22.455 5.14852 23.9955 4.47195 25.6164C6.72453 25.0661 9.87766 24.6051 13.2901 25.0472L17.025 21.3123C10.5299 20.239 7.52203 20.7365 6.53891 20.9959ZM12.767 28.8953L1.66242 39.9998C2.77016 39.6901 6.69742 38.549 11.6216 36.6406L11.6221 36.6401C12.138 35.0302 12.8601 32.1581 12.767 28.8953ZM3.35977 28.3788C1.45078 33.3024 0.309766 37.2297 0 38.3374L11.1045 27.2329C7.84172 27.1397 4.96906 27.8623 3.35977 28.3788ZM18.6875 22.9747L14.9526 26.7097C15.3948 30.1221 14.9338 33.2752 14.3834 35.5278C16.0043 34.8511 17.5448 34.1618 19.0039 33.4608C19.2633 32.4778 19.7609 29.4699 18.6875 22.9747ZM9.94305 14.6903C9.23375 15.8485 8.53438 17.0842 7.84508 18.3953C9.96195 18.1869 13.4841 18.2324 19.0533 19.2841L22.8708 15.4666C15.5012 13.8225 11.1223 14.4542 9.94305 14.6903ZM24.5321 17.1301L20.7157 20.9465C21.7675 26.5157 21.8129 30.0379 21.6045 32.1547C22.9145 31.4665 24.1492 30.7672 25.3068 30.0584C25.5373 28.8747 26.1624 24.4526 24.5321 17.1301ZM14.2781 8.7049C13.3832 9.72505 12.5004 10.8583 11.6315 12.104C14.2099 11.9029 18.6426 11.9688 24.8235 13.5138L28.6277 9.70959C19.8363 7.67865 15.5809 8.3674 14.2781 8.7049ZM30.0398 1.10037C27.714 1.02443 25.4237 1.40185 23.2315 2.22193C21.0431 3.04154 18.9557 4.30333 17.0045 5.98513C17.0633 5.98294 17.1226 5.98013 17.1835 5.97794C20.817 5.84552 25.3206 6.44451 30.5773 7.76005L36.0062 2.33107C34.9107 1.88833 32.7773 1.19013 30.0398 1.10037Z" fill="#CFDBEA"/>
<path d="M39.6555 2.00654L37.6683 3.99373C37.4694 3.50217 37.322 3.21959 37.3037 3.18467C37.1934 2.97686 37.0227 2.80615 36.8149 2.69592C36.78 2.67764 36.4974 2.53021 36.0059 2.33131L37.993 0.344121C38.4519 -0.114707 39.1966 -0.114707 39.6555 0.344121C40.1143 0.802949 40.1143 1.54771 39.6555 2.00654Z" fill="#CFDBEA"/>
</g>
<defs>
<clipPath id="clip0_16_7037">
<rect width="40" height="40" fill="white"/>
</clipPath>
</defs>
</svg>
