<svg width="40" height="40" viewBox="0 0 40 40" fill="none" xmlns="http://www.w3.org/2000/svg">
<path d="M6.01701 36.6669H17.4233C14.9926 35.7309 12.8042 34.3102 10.892 32.4046C10.3129 31.8054 10.1446 30.9502 10.4476 30.2096C10.7506 29.442 11.4845 28.9504 12.3127 28.9504C13.1072 28.937 13.9018 28.9033 14.6963 28.8427V19.8334C14.6963 18.7224 15.6053 17.8134 16.7163 17.8134H23.039L22.8437 14.339C22.7966 13.2684 21.9078 12.4267 20.8304 12.4267H18.7363V9.7334H9.30962V12.4267H7.21555C6.13821 12.4267 5.25614 13.2684 5.20227 14.3323L4.11146 32.6268L4.00373 34.5324C3.97006 35.0913 4.16533 35.6232 4.54913 36.0339C4.9262 36.4379 5.46487 36.6669 6.01701 36.6669Z" fill="#CFDBEA"/>
<path d="M16.043 19.8335V28.7013C18.5612 28.4118 21.093 27.8529 23.6113 27.0247L23.113 19.1602H16.7163C16.346 19.1602 16.043 19.4632 16.043 19.8335Z" fill="#CFDBEA"/>
<path d="M11.693 30.7148C11.592 30.9639 11.6526 31.2534 11.8411 31.4487C15.329 34.9164 19.7663 36.6671 25.0587 36.6671C25.6176 36.6671 26.1832 36.6469 26.7555 36.6065C28.9034 36.4651 30.6205 34.8491 30.9235 32.8021C32.0412 32.7146 34.3238 32.2904 35.4819 30.2704C35.6637 29.9472 35.556 29.5364 35.2328 29.3479C34.9096 29.1661 34.4989 29.2738 34.3103 29.597C33.5091 31.0043 31.8257 31.3612 30.9235 31.442C30.7417 30.2704 30.102 29.2334 29.0987 28.5264C27.9002 27.678 26.4188 27.4693 25.0318 27.9676C20.8099 29.4624 16.5275 30.2434 12.3124 30.2973C12.0364 30.2973 11.794 30.4656 11.693 30.7148Z" fill="#CFDBEA"/>
<path d="M7.28955 8.38669H20.7563C21.1266 8.38669 21.4296 8.08369 21.4296 7.71336C21.4296 5.34321 19.6722 3.37707 17.3896 3.05387V5.02001C17.3896 5.39035 17.0866 5.69335 16.7163 5.69335C16.3459 5.69335 16.0429 5.39035 16.0429 5.02001V3H14.6963V5.02001C14.6963 5.39035 14.3932 5.69335 14.0229 5.69335C13.6526 5.69335 13.3496 5.39035 13.3496 5.02001V3H12.0029V5.02001C12.0029 5.39035 11.6999 5.69335 11.3296 5.69335C10.9592 5.69335 10.6562 5.39035 10.6562 5.02001V3.05387C8.37362 3.37707 6.61621 5.34321 6.61621 7.71336C6.61621 8.08369 6.91921 8.38669 7.28955 8.38669Z" fill="#CFDBEA"/>
</svg>
