<svg width="40" height="40" viewBox="0 0 40 40" fill="none" xmlns="http://www.w3.org/2000/svg">
<path d="M18.4551 29.0322H21.0414V30.972H18.4551V29.0322Z" fill="#CFDBEA"/>
<path d="M18.4551 25.7998H21.0414V27.7393H18.4551V25.7998Z" fill="#CFDBEA"/>
<path d="M18.4551 32.2656H21.0414V34.2054H18.4551V32.2656Z" fill="#CFDBEA"/>
<path d="M18.4551 22.5664H21.0414V24.5059H18.4551V22.5664Z" fill="#CFDBEA"/>
<path d="M21.0414 20.8413L20.786 20.5433C20.3923 20.4403 20.0337 20.2329 19.7483 19.9434C19.4635 20.2327 19.1062 20.4398 18.7137 20.5428L18.4551 20.8419V21.2738H21.0414V20.8413Z" fill="#CFDBEA"/>
<path d="M17.1621 18.3641C17.1827 18.8701 17.5892 19.2753 18.0957 19.294C18.6018 19.3126 19.0369 18.9386 19.0948 18.4353L19.0895 18.3675V18.3641C19.0829 18.2654 19.0772 18.1865 19.0664 18.1192C18.9371 17.6545 18.4864 17.3556 18.0081 17.4172C17.5302 17.4785 17.1697 17.8821 17.1621 18.3641Z" fill="#CFDBEA"/>
<path d="M26.2545 13.2637C24.7885 13.3635 23.3908 13.9188 22.2564 14.8524C22.3791 15.3184 22.3578 15.8112 22.1953 16.2648C22.3379 16.3204 22.4743 16.3907 22.6023 16.4747C24.4139 16.3275 26.2117 16.8894 27.6173 18.0416H33.3716C33.5696 18.0384 33.7545 17.9428 33.8712 17.7832C34.0136 17.5967 34.0598 17.3543 33.996 17.1288C33.31 14.6654 30.8475 13.1939 27.4104 13.1939C27.0238 13.1893 26.6377 13.2129 26.2545 13.2637Z" fill="#CFDBEA"/>
<path d="M22.3556 20.389L29.006 28.1662C29.1403 28.3239 29.3424 28.4077 29.5489 28.3912C29.7441 28.3811 29.9226 28.2791 30.03 28.1159C31.3522 26.0838 30.8059 23.3082 28.5676 20.6928C28.1028 20.1439 27.5825 19.644 27.0158 19.2014C26.028 18.3689 24.8103 17.8565 23.5247 17.7324C23.8554 18.7864 23.3546 19.9221 22.3535 20.389H22.3556Z" fill="#CFDBEA"/>
<path d="M19.7281 16.7485C19.7519 16.7485 19.7689 16.744 19.7929 16.7426C20.0772 16.4677 20.4292 16.2725 20.813 16.1763C21.0801 15.7836 21.1094 15.2759 20.8901 14.8552C20.6704 14.4343 20.2371 14.1679 19.7624 14.1622C19.4168 14.1585 19.0845 14.2929 18.8387 14.5359C18.5933 14.7788 18.4551 15.11 18.4551 15.4554C18.4565 15.714 18.5368 15.9665 18.6853 16.1784C19.0712 16.2748 19.4248 16.4716 19.7107 16.7485H19.7281Z" fill="#CFDBEA"/>
<path d="M22.3338 18.3641C22.3338 18.8999 21.8999 19.3341 21.3643 19.3341C20.8285 19.3341 20.3945 18.8999 20.3945 18.3641C20.3945 17.8285 20.8285 17.3945 21.3643 17.3945C21.8999 17.3945 22.3338 17.8285 22.3338 18.3641Z" fill="#CFDBEA"/>
<path d="M13.914 12.0199C15.3782 12.1781 16.7746 12.7192 17.9634 13.5887C18.3051 13.2625 18.7301 13.0368 19.1916 12.9354C19.1961 12.9064 19.1982 12.8801 19.2028 12.8508C18.8915 11.4885 18.2747 10.2143 17.399 9.12549C15.2923 6.40409 12.6863 5.305 10.4279 6.18757C10.2455 6.25943 10.1082 6.41393 10.0578 6.60321C10.0013 6.80303 10.0434 7.01772 10.1711 7.18114L13.914 12.0199Z" fill="#CFDBEA"/>
<path d="M12.4849 19.1975C11.9157 19.6413 11.3938 20.1421 10.9274 20.6923C8.69005 23.3064 8.14692 26.0818 9.46688 28.1152C9.57445 28.2777 9.75252 28.3791 9.94707 28.3894C10.154 28.404 10.3561 28.3203 10.4914 28.1632L17.1406 20.389C16.3649 20.0123 15.8717 19.227 15.8687 18.3646C15.8717 18.1504 15.9058 17.9373 15.9694 17.7324C14.6863 17.8562 13.4709 18.3671 12.4849 19.1975Z" fill="#CFDBEA"/>
<path d="M6.35232 18.0405H11.8794C13.2854 16.888 15.0835 16.3259 16.8953 16.4726C17.0235 16.3893 17.1596 16.3193 17.302 16.2636C17.123 15.7574 17.1159 15.2062 17.2812 14.6953C16.1814 13.8622 14.8637 13.3658 13.4872 13.2658C13.4527 13.2621 13.4184 13.2555 13.3845 13.2465C13.029 13.2076 12.6711 13.1893 12.3131 13.1916C8.87688 13.1916 6.41412 14.6631 5.72679 17.1277C5.66476 17.3538 5.7126 17.5957 5.85611 17.7811C5.97215 17.9404 6.15548 18.0363 6.35232 18.0405Z" fill="#CFDBEA"/>
<path d="M20.494 12.9336C20.494 12.9496 20.494 12.9625 20.4883 12.9789C20.9243 13.1112 21.3175 13.3566 21.6281 13.6901C22.841 12.7608 24.2863 12.184 25.8054 12.0224L29.5495 7.17932C29.677 7.0175 29.7195 6.80418 29.6639 6.60574C29.6136 6.41394 29.4755 6.25784 29.2915 6.18437C27.4108 5.44783 25.2882 6.09304 23.4134 7.9067L23.4093 7.91128C23.0186 8.29008 22.6551 8.69657 22.3225 9.12733C21.423 10.2351 20.7964 11.5388 20.494 12.9336Z" fill="#CFDBEA"/>
<path d="M19.8581 10.7165C20.2436 9.86897 20.7272 9.06972 21.3001 8.33524C21.6205 7.92073 21.9661 7.52591 22.3342 7.15283C22.3353 6.7928 22.317 6.433 22.2792 6.07503C22.271 6.04413 22.2651 6.01278 22.2618 5.98073C22.1623 4.22636 21.3964 2.57612 20.1207 1.36763C19.9071 1.18475 19.5926 1.18475 19.3789 1.36763C18.1026 2.57589 17.3365 4.22613 17.2372 5.98073C17.2338 6.013 17.2281 6.04505 17.2198 6.07618C17.1901 6.33893 17.1756 6.62915 17.1699 6.93929C17.622 7.37348 18.0413 7.83971 18.4247 8.33524C18.9939 9.07063 19.4748 9.86966 19.8581 10.7165Z" fill="#CFDBEA"/>
<path d="M30.8475 37.4374H21.0415V35.498H18.4552V37.4374H5.52452C5.16746 37.4374 4.87793 37.7269 4.87793 38.0839C4.87793 38.441 5.16746 38.7305 5.52452 38.7305H30.8475C31.2046 38.7305 31.4941 38.441 31.4941 38.0839C31.4941 37.7269 31.2046 37.4374 30.8475 37.4374Z" fill="#CFDBEA"/>
<path d="M33.9719 37.4375H33.3253C32.9682 37.4375 32.6787 37.727 32.6787 38.0841C32.6787 38.4411 32.9682 38.7307 33.3253 38.7307H33.9719C34.3289 38.7307 34.6185 38.4411 34.6185 38.0841C34.6185 37.727 34.3289 37.4375 33.9719 37.4375Z" fill="#CFDBEA"/>
</svg>
