<svg width="40" height="40" viewBox="0 0 40 40" fill="none" xmlns="http://www.w3.org/2000/svg">
<g clip-path="url(#clip0_16_7041)">
<path d="M29.3466 13.6941C27.9328 13.6941 26.4806 14.0375 25.0216 14.7158C24.8568 11.9045 23.6616 9.70153 22.6474 8.31248C21.4668 6.69547 20.2947 5.82048 20.2454 5.78407C20.0996 5.67634 19.9005 5.67595 19.7542 5.78407C19.7049 5.82048 18.5329 6.69547 17.3522 8.31248C16.338 9.70153 15.1428 11.9045 14.978 14.7158C13.519 14.0375 12.0668 13.6941 10.653 13.6941C7.24798 13.6941 5.24652 15.6573 5.16293 15.7409C5.08551 15.8184 5.04199 15.9235 5.04199 16.033C5.04199 16.1045 5.05277 17.8053 5.99167 19.6733C6.80603 21.2933 8.48758 23.3235 11.9136 24.1039C10.5448 25.7889 9.82764 27.9484 9.8317 30.3968C9.83514 32.4395 10.331 33.9505 10.3521 34.0138C10.4083 34.1826 10.5662 34.2964 10.744 34.2964C10.8206 34.2964 12.6443 34.2894 14.7421 33.6874C17.2101 32.9791 19.0093 31.7334 19.9997 30.0589C20.9901 31.7334 22.7893 32.9792 25.2573 33.6874C27.355 34.2894 29.1787 34.2964 29.2554 34.2964C29.4333 34.2964 29.5912 34.1826 29.6473 34.0138C29.6685 33.9505 30.1643 32.4395 30.1677 30.3968C30.1718 27.9484 29.4546 25.7889 28.0859 24.1039C31.5118 23.3235 33.1934 21.2933 34.0077 19.6733C34.9466 17.8053 34.9574 16.1045 34.9574 16.033C34.9574 15.9235 34.9139 15.8183 34.8365 15.7409C34.753 15.6573 32.751 13.6941 29.3466 13.6941ZM19.9998 24.9215C18.1475 24.9215 16.6405 23.4145 16.6405 21.5622C16.6405 19.7098 18.1475 18.2028 19.9998 18.2028C21.8521 18.2028 23.3591 19.7098 23.3591 21.5622C23.3591 23.4145 21.8522 24.9215 19.9998 24.9215Z" fill="#CFDBEA"/>
<path d="M38.2782 11.4652L35.2256 13.0866C35.9547 13.5628 36.3883 13.9784 36.4939 14.084C36.7051 14.2952 36.877 14.5349 37.0076 14.7939L39.3775 13.5352C39.9491 13.2316 40.1664 12.5221 39.8628 11.9505C39.5593 11.3789 38.8496 11.1617 38.2782 11.4652Z" fill="#CFDBEA"/>
<path d="M0.622385 31.4642C0.0508295 31.7678 -0.166434 32.4772 0.137157 33.0488C0.442231 33.6233 1.15285 33.8363 1.72183 33.5341L7.48895 30.471C7.4827 29.5058 7.57074 28.5766 7.75152 27.6777L0.622385 31.4642Z" fill="#CFDBEA"/>
<path d="M0.622385 26.4643C0.0508295 26.7679 -0.166434 27.4774 0.137157 28.049C0.442231 28.6235 1.15285 28.8364 1.72183 28.5342L8.1062 25.1433C7.28778 24.6826 6.59739 24.1548 6.01615 23.5996L0.622385 26.4643Z" fill="#CFDBEA"/>
<path d="M32.9323 11.9582L39.3772 8.53519C39.9488 8.2316 40.166 7.52216 39.8625 6.95053C39.5589 6.37889 38.8493 6.16171 38.2778 6.4653L29.0723 11.3545C30.4045 11.3217 31.6988 11.5248 32.9323 11.9582Z" fill="#CFDBEA"/>
<path d="M20 22.5781C20.5609 22.5781 21.0156 22.1234 21.0156 21.5625C21.0156 21.0016 20.5609 20.5469 20 20.5469C19.4391 20.5469 18.9844 21.0016 18.9844 21.5625C18.9844 22.1234 19.4391 22.5781 20 22.5781Z" fill="#CFDBEA"/>
</g>
<defs>
<clipPath id="clip0_16_7041">
<rect width="40" height="40" fill="white"/>
</clipPath>
</defs>
</svg>
