<svg width="59" height="59" viewBox="0 0 59 59" fill="none" xmlns="http://www.w3.org/2000/svg">
<g clip-path="url(#clip0_79_5158)">
<path d="M45.0664 58.4823L40.6877 55.9026V42.2815C40.6877 41.7917 40.2906 41.3945 39.8007 41.3945C39.3109 41.3945 38.9137 41.7917 38.9137 42.2815V55.9026L34.535 58.4823C34.4087 58.5568 34.4615 58.7505 34.6081 58.7505H44.9932C45.14 58.7505 45.1927 58.5568 45.0664 58.4823Z" fill="white"/>
<path d="M21.391 16.0453V0.818828C21.391 0.366614 21.0244 0 20.5721 0H16.1798C15.7276 0 15.3609 0.366614 15.3609 0.818828V16.0453C15.3609 16.8989 15.0767 17.7282 14.553 18.4023L12.5984 20.9184C11.3668 22.5039 10.6982 24.4545 10.6982 26.4621V57.0728C10.6982 57.9991 11.4491 58.75 12.3755 58.75H24.3764C25.3028 58.75 26.0537 57.9991 26.0537 57.0728V26.4621C26.0537 24.4543 25.3851 22.5039 24.1535 20.9184L22.1989 18.4023C21.6752 17.7282 21.391 16.8989 21.391 16.0453Z" fill="#6A42DB"/>
<path d="M46.1148 25.4463H33.4873C33.4873 25.4463 30.5374 32.7336 31.9174 37.3912C33.0667 41.2702 36.484 42.9318 38.4211 43.5779C39.3168 43.8767 40.2852 43.8767 41.1808 43.5779C43.1179 42.9318 46.5352 41.2702 47.6845 37.3912C49.0648 32.7336 46.1148 25.4463 46.1148 25.4463Z" fill="white"/>
<path d="M31.608 33.1816C31.4864 34.6463 31.5398 36.1172 31.9174 37.3913C33.0667 41.2703 36.484 42.9318 38.4211 43.578C39.3168 43.8768 40.2851 43.8768 41.1808 43.578C43.1178 42.9318 46.5352 41.2703 47.6845 37.3913C48.062 36.1172 48.1155 34.6463 47.9939 33.1816H31.608Z" fill="#6A42DB"/>
<path d="M26.0531 44.3451H17.9127C17.1039 44.3451 16.4482 43.6895 16.4482 42.8806V32.5036C16.4482 31.6947 17.1039 31.0391 17.9127 31.0391H26.0531V44.3451Z" fill="#9170EE"/>
<path d="M20.5715 0H16.1792C15.727 0 15.3604 0.366614 15.3604 0.818828V14.2245H21.3905C21.3905 14.2245 21.3905 3.84514 21.3905 0.818828C21.3904 0.366614 21.0238 0 20.5715 0Z" fill="#5732BF"/>
<path d="M21.544 5.57805H15.2069C15.022 5.57805 14.8721 5.42819 14.8721 5.24322V2.96081C14.8721 2.77595 15.0219 2.62598 15.2069 2.62598H21.544C21.7288 2.62598 21.8788 2.77583 21.8788 2.96081V5.24322C21.8787 5.42819 21.7288 5.57805 21.544 5.57805Z" fill="#5732BF"/>
</g>
<defs>
<clipPath id="clip0_79_5158">
<rect width="58.75" height="58.75" fill="white"/>
</clipPath>
</defs>
</svg>
